<svg width="20" height="20" viewBox="0 0 20 20" fill="none" xmlns="http://www.w3.org/2000/svg">
<path d="M7.89258 12.7333C7.73425 12.7333 7.57591 12.675 7.45091 12.55C6.76758 11.8667 6.39258 10.9583 6.39258 10C6.39258 8.00833 8.00924 6.39167 10.0009 6.39167C10.9592 6.39167 11.8676 6.76667 12.5509 7.45C12.6676 7.56667 12.7342 7.725 12.7342 7.89167C12.7342 8.05833 12.6676 8.21667 12.5509 8.33333L8.33424 12.55C8.20924 12.675 8.05091 12.7333 7.89258 12.7333ZM10.0009 7.64167C8.70091 7.64167 7.64258 8.7 7.64258 10C7.64258 10.4167 7.75091 10.8167 7.95091 11.1667L11.1676 7.95C10.8176 7.75 10.4176 7.64167 10.0009 7.64167Z" fill="currentColor"/>
<path d="M4.66654 15.425C4.52487 15.425 4.37487 15.375 4.2582 15.275C3.36654 14.5167 2.56654 13.5833 1.8832 12.5C0.99987 11.125 0.99987 8.88333 1.8832 7.5C3.91654 4.31667 6.87487 2.48333 9.99987 2.48333C11.8332 2.48333 13.6415 3.11667 15.2249 4.30833C15.4999 4.51667 15.5582 4.90833 15.3499 5.18333C15.1415 5.45833 14.7499 5.51667 14.4749 5.30833C13.1082 4.275 11.5582 3.73333 9.99987 3.73333C7.3082 3.73333 4.7332 5.35 2.9332 8.175C2.3082 9.15 2.3082 10.85 2.9332 11.825C3.5582 12.8 4.27487 13.6417 5.06654 14.325C5.32487 14.55 5.3582 14.9417 5.1332 15.2083C5.01654 15.35 4.84154 15.425 4.66654 15.425Z" fill="currentColor"/>
<path d="M10.0001 17.5167C8.8918 17.5167 7.80847 17.2917 6.7668 16.85C6.45013 16.7167 6.30013 16.35 6.43347 16.0333C6.5668 15.7167 6.93347 15.5667 7.25013 15.7C8.13347 16.075 9.05847 16.2667 9.9918 16.2667C12.6835 16.2667 15.2585 14.65 17.0585 11.825C17.6835 10.85 17.6835 9.15 17.0585 8.175C16.8001 7.76667 16.5168 7.375 16.2168 7.00833C16.0001 6.74167 16.0418 6.35 16.3085 6.125C16.5751 5.90833 16.9668 5.94167 17.1918 6.21667C17.5168 6.61667 17.8335 7.05 18.1168 7.5C19.0001 8.875 19.0001 11.1167 18.1168 12.5C16.0835 15.6833 13.1251 17.5167 10.0001 17.5167Z" fill="currentColor"/>
<path d="M10.5756 13.5583C10.284 13.5583 10.0173 13.35 9.95897 13.05C9.8923 12.7083 10.1173 12.3833 10.459 12.325C11.3756 12.1583 12.1423 11.3917 12.309 10.475C12.3756 10.1333 12.7006 9.91667 13.0423 9.975C13.384 10.0417 13.609 10.3667 13.5423 10.7083C13.2756 12.15 12.1256 13.2917 10.6923 13.5583C10.6506 13.55 10.6173 13.5583 10.5756 13.5583Z" fill="currentColor"/>
<path d="M1.66589 18.9583C1.50755 18.9583 1.34922 18.9 1.22422 18.775C0.982552 18.5333 0.982552 18.1333 1.22422 17.8917L7.44922 11.6667C7.69089 11.425 8.09089 11.425 8.33255 11.6667C8.57422 11.9083 8.57422 12.3083 8.33255 12.55L2.10755 18.775C1.98255 18.9 1.82422 18.9583 1.66589 18.9583Z" fill="currentColor"/>
<path d="M12.1092 8.51667C11.9509 8.51667 11.7926 8.45833 11.6676 8.33333C11.4259 8.09167 11.4259 7.69167 11.6676 7.45L17.8926 1.225C18.1342 0.983334 18.5342 0.983334 18.7759 1.225C19.0176 1.46667 19.0176 1.86667 18.7759 2.10833L12.5509 8.33333C12.4259 8.45833 12.2676 8.51667 12.1092 8.51667Z" fill="currentColor"/>
</svg>
