<svg width="32" height="32" viewBox="0 0 32 32" fill="none" xmlns="http://www.w3.org/2000/svg">
    <path d="M23.6047 13.1774L23.608 13.1747C24.2464 12.656 24.3478 11.7059 23.8327 11.0647C23.3223 10.3988 22.3628 10.3079 21.7258 10.8239C21.7252 10.8243 21.7246 10.8248 21.7241 10.8253L17.554 14.156L17.553 14.1568C17.151 14.4794 16.5844 14.6567 15.9927 14.6567C15.4009 14.6567 14.8343 14.4794 14.4323 14.1568L14.4314 14.156L10.2595 10.8238C9.60782 10.296 8.66942 10.4286 8.15796 11.0581L8.15789 11.058L8.152 11.0655C7.65251 11.7049 7.75068 12.6547 8.39072 13.1747L8.39397 13.1774L12.5654 16.5091C13.5337 17.2979 14.7826 17.6734 15.9993 17.6734C17.2189 17.6734 18.4528 17.2963 19.4319 16.5103C19.4321 16.5101 19.4323 16.51 19.4324 16.5099L23.6047 13.1774L23.6047 13.1774ZM9.33268 5.16669H22.666C24.5894 5.16669 26.1158 5.6476 27.1591 6.61642C28.1958 7.57901 28.8327 9.09532 28.8327 11.3334V20.6667C28.8327 22.9047 28.1958 24.421 27.1591 25.3836C26.1158 26.3524 24.5894 26.8334 22.666 26.8334H9.33268C7.40933 26.8334 5.88292 26.3524 4.83957 25.3836C3.80294 24.421 3.16602 22.9047 3.16602 20.6667V11.3334C3.16602 9.09532 3.80294 7.57901 4.83957 6.61642C5.88292 5.6476 7.40933 5.16669 9.33268 5.16669Z" fill="currentColor" stroke="currentColor"/>
    </svg>
    